<svg width="65" height="51" viewBox="0 0 65 51" fill="none" xmlns="http://www.w3.org/2000/svg">
<path d="M37.5574 19.1989C37.5574 16.7434 35.8002 15.3878 32.7138 15.3878H27.0366V23.299H31.8239C35.5186 23.2878 37.5574 21.8212 37.5574 19.1989ZM58.2273 17.7767C57.1572 14.3434 56.9995 10.1322 57.1234 6.87664C57.2473 3.48773 54.5664 0.376602 50.9619 0.376602H13.925C10.3092 0.376602 7.63956 3.49884 7.76347 6.87664C7.87611 10.1322 7.72968 14.3434 6.65957 17.7767C5.5782 21.2212 3.76466 23.399 0.779633 23.6767V26.8434C3.75339 27.1212 5.5782 29.299 6.65957 32.7435C7.72968 36.1768 7.88737 40.3879 7.76347 43.6435C7.63956 47.0324 10.3205 50.1436 13.925 50.1436H50.9506C54.5664 50.1436 57.2361 47.0213 57.1121 43.6435C56.9995 40.3879 57.1459 36.1768 58.216 32.7435C59.2974 29.299 61.111 27.1212 64.0847 26.8434V23.6767C61.1222 23.399 59.2974 21.2212 58.2273 17.7767ZM33.8064 38.499H22.7787V12.0211H33.7501C38.6275 12.0211 41.8266 14.6211 41.8266 18.6212C41.8266 21.4323 39.6751 23.9434 36.9266 24.3767V24.5212C40.6663 24.9212 43.1783 27.4768 43.1783 30.999C43.1783 35.6768 39.6526 38.499 33.8064 38.499ZM32.68 26.4212H27.0366V35.1324H32.9278C36.7802 35.1324 38.819 33.6101 38.819 30.7434C38.819 27.8879 36.7239 26.4212 32.68 26.4212Z" fill="#E7E7E7"/>
</svg>
