<svg width="42" height="55" viewBox="0 0 42 55" fill="none" xmlns="http://www.w3.org/2000/svg">
<path d="M0.389832 10.5193C0.389832 4.87699 5.35226 0.302963 11.4738 0.302963H30.4923C36.6138 0.302963 41.5763 4.87699 41.5763 10.5193C41.5763 14.0921 39.5866 17.2366 36.5727 19.0626C39.5866 20.8887 41.5763 24.0331 41.5763 27.6059C41.5763 33.2483 36.6138 37.8223 30.4923 37.8223H30.2517C27.3819 37.8223 24.7668 36.817 22.7984 35.1677V44.581C22.7984 50.2986 17.7062 54.9084 11.5335 54.9084C5.42727 54.9084 0.389832 50.3483 0.389832 44.6919C0.389832 41.1193 2.37936 37.975 5.39292 36.149C2.37936 34.3229 0.389832 31.1785 0.389832 27.6059C0.389832 24.0331 2.37953 20.8887 5.3933 19.0626C2.37953 17.2366 0.389832 14.0921 0.389832 10.5193ZM19.1677 20.7359H11.4738C7.3574 20.7359 4.02047 23.8118 4.02047 27.6059C4.02047 31.3854 7.33166 34.452 11.4261 34.4757C11.442 34.4756 11.4578 34.4756 11.4738 34.4756H19.1677V20.7359ZM22.7984 27.6059C22.7984 31.4 26.1353 34.4758 30.2517 34.4758H30.4923C34.6087 34.4758 37.9456 31.4 37.9456 27.6059C37.9456 23.8118 34.6087 20.7359 30.4923 20.7359H30.2517C26.1353 20.7359 22.7984 23.8118 22.7984 27.6059ZM11.4738 37.8223C11.4578 37.8223 11.442 37.8222 11.4261 37.8222C7.33166 37.8458 4.02047 40.9124 4.02047 44.6919C4.02047 48.4722 7.40198 51.5619 11.5335 51.5619C15.7316 51.5619 19.1677 48.4225 19.1677 44.581V37.8223H11.4738ZM11.4738 3.64944C7.3574 3.64944 4.02047 6.72521 4.02047 10.5193C4.02047 14.3135 7.3574 17.3892 11.4738 17.3892H19.1677V3.64944H11.4738ZM22.7984 17.3892H30.4923C34.6087 17.3892 37.9456 14.3135 37.9456 10.5193C37.9456 6.72521 34.6087 3.64944 30.4923 3.64944H22.7984V17.3892Z" fill="#E7E7E7"/>
</svg>
