<svg width="58" height="56" viewBox="0 0 58 56" fill="none" xmlns="http://www.w3.org/2000/svg">
<path d="M56.8726 25.7976L31.5708 1.65434C30.8703 0.986753 29.9207 0.611755 28.9306 0.611755C27.9405 0.611755 26.9909 0.986753 26.2904 1.65434L21.0295 6.66939L27.6956 13.0286C31.1968 11.9004 34.5117 15.0986 33.3097 18.4201L39.7351 24.5497C44.1641 23.0933 47.6511 28.3761 44.3245 31.5471C40.897 34.8168 35.2402 31.1929 37.0788 26.9382L31.0817 21.2245V36.2647C34.3552 37.8125 33.9618 41.4303 32.2565 43.0534C31.4233 43.8478 30.2936 44.294 29.1156 44.294C27.9377 44.294 26.8079 43.8478 25.9747 43.0534C23.7014 40.881 24.5424 37.2632 27.4303 36.1413V20.9591C24.7391 19.9087 24.2474 17.1648 25.0185 15.4047L18.4469 9.12815L1.09337 25.6853C0.393251 26.3534 -6.10352e-05 27.2593 -6.10352e-05 28.204C-6.10352e-05 29.1486 0.393251 30.0546 1.09337 30.7226L26.403 54.8659C27.1032 55.5334 28.0526 55.9084 29.0425 55.9084C30.0324 55.9084 30.9818 55.5334 31.682 54.8659L56.8726 30.8349C57.5727 30.1669 57.966 29.2609 57.966 28.3163C57.966 27.3716 57.5727 26.4657 56.8726 25.7976Z" fill="#E7E7E7"/>
</svg>
