<svg width="50" height="49" viewBox="0 0 50 49" fill="none" xmlns="http://www.w3.org/2000/svg">
<path d="M16.9041 39.027C16.9041 39.2271 16.6742 39.3871 16.3843 39.3871C16.0545 39.4171 15.8246 39.2571 15.8246 39.027C15.8246 38.8269 16.0545 38.6668 16.3444 38.6668C16.6442 38.6368 16.9041 38.7968 16.9041 39.027ZM13.7956 38.5767C13.7256 38.7768 13.9255 39.0069 14.2254 39.067C14.4852 39.167 14.7851 39.067 14.8451 38.8669C14.905 38.6668 14.7151 38.4367 14.4153 38.3466C14.1554 38.2766 13.8655 38.3766 13.7956 38.5767ZM18.2135 38.4066C17.9236 38.4767 17.7237 38.6668 17.7537 38.8969C17.7837 39.097 18.0435 39.2271 18.3434 39.157C18.6333 39.087 18.8332 38.8969 18.8032 38.6968C18.7732 38.5067 18.5033 38.3766 18.2135 38.4066ZM24.7903 0.0677948C10.9269 0.0677948 0.322021 10.603 0.322021 24.4798C0.322021 35.5753 7.29868 45.0699 17.2639 48.4116C18.5433 48.6417 18.9931 47.8513 18.9931 47.201C18.9931 46.5807 18.9631 43.159 18.9631 41.058C18.9631 41.058 11.9664 42.5587 10.4972 38.0765C10.4972 38.0765 9.3577 35.1651 7.71848 34.4147C7.71848 34.4147 5.42958 32.8439 7.8784 32.8739C7.8784 32.8739 10.3672 33.074 11.7366 35.4552C13.9255 39.3171 17.5938 38.2066 19.0231 37.5462C19.253 35.9454 19.9027 34.8349 20.6223 34.1746C15.035 33.5543 9.39768 32.7439 9.39768 23.1191C9.39768 20.3678 10.1573 18.9871 11.7565 17.2262C11.4967 16.5759 10.6471 13.8946 12.0164 10.4329C14.1054 9.78257 18.9131 13.1342 18.9131 13.1342C20.9122 12.5739 23.0611 12.2838 25.1901 12.2838C27.3191 12.2838 29.4681 12.5739 31.4671 13.1342C31.4671 13.1342 36.2748 9.77257 38.3638 10.4329C39.7332 13.9046 38.8836 16.5759 38.6237 17.2262C40.2229 18.9971 41.2025 20.3778 41.2025 23.1191C41.2025 32.7739 35.3153 33.5443 29.7279 34.1746C30.6475 34.965 31.4271 36.4657 31.4271 38.8168C31.4271 42.1885 31.3971 46.3606 31.3971 47.181C31.3971 47.8313 31.8569 48.6217 33.1263 48.3916C43.1215 45.0699 49.8983 35.5753 49.8983 24.4798C49.8983 10.603 38.6537 0.0677948 24.7903 0.0677948ZM10.0374 34.5748C9.90743 34.6748 9.93742 34.9049 10.1073 35.095C10.2673 35.2551 10.4972 35.3251 10.6271 35.1951C10.757 35.095 10.727 34.8649 10.5571 34.6748C10.3972 34.5147 10.1673 34.4447 10.0374 34.5748ZM8.95789 33.7644C8.88792 33.8944 8.98787 34.0545 9.18778 34.1546C9.3477 34.2546 9.54761 34.2246 9.61757 34.0845C9.68754 33.9545 9.58759 33.7944 9.38768 33.6943C9.18778 33.6343 9.02785 33.6643 8.95789 33.7644ZM12.1963 37.3261C12.0364 37.4562 12.0964 37.7563 12.3263 37.9464C12.5562 38.1765 12.846 38.2066 12.976 38.0465C13.1059 37.9164 13.0459 37.6163 12.846 37.4262C12.6261 37.1961 12.3263 37.166 12.1963 37.3261ZM11.0569 35.8554C10.897 35.9554 10.897 36.2156 11.0569 36.4457C11.2168 36.6758 11.4867 36.7758 11.6166 36.6758C11.7765 36.5457 11.7765 36.2856 11.6166 36.0555C11.4767 35.8254 11.2168 35.7253 11.0569 35.8554Z" fill="#E7E7E7"/>
</svg>
