<svg width="50" height="49" viewBox="0 0 50 49" fill="none" xmlns="http://www.w3.org/2000/svg">
<path d="M30.2722 0.291052C30.1533 0.308233 30.0344 0.342597 29.92 0.394141C28.9515 0.862339 27.851 2.25405 27.6397 2.52895C27.6265 2.54613 27.6133 2.56332 27.6045 2.5805C26.5172 4.16979 25.9361 6.0297 25.9141 7.96692C25.9009 9.41877 26.1914 10.8577 26.7813 12.2451C28.1548 15.4624 31.0073 18.1255 34.4013 19.3712C34.5157 19.4099 34.6258 19.4485 34.8239 19.5172C34.8415 19.5258 35.0088 19.5774 35.0352 19.5817L35.1584 19.6246C35.3345 19.6805 35.515 19.7363 35.6911 19.7707C36.5847 19.9468 37.4563 20.0456 38.2751 20.0713C38.416 20.0713 38.5568 20.0756 38.6977 20.0756C44.8738 20.0756 47.2685 15.8232 48.0653 14.4057C48.1445 14.2683 48.2018 14.1566 48.2546 14.0879C48.2546 14.0836 48.2546 14.0836 48.259 14.0793C48.6068 13.5767 48.4747 12.8937 47.9597 12.5501C47.449 12.2108 46.7491 12.3396 46.3969 12.8422H46.3925C44.7461 15.209 41.9288 15.9263 38.0242 14.9813C37.7337 14.9126 37.4167 14.8052 37.135 14.7021C36.7652 14.5732 36.3954 14.4229 36.0521 14.2597C35.3697 13.9289 34.727 13.5338 34.146 13.0956C30.7124 10.4969 29.3697 5.08901 31.3771 1.96626C31.6456 1.5496 31.5972 1.00838 31.2582 0.643274C31.0029 0.368368 30.6331 0.243802 30.2722 0.291052ZM20.2883 2.4817C20.0329 2.47741 19.7732 2.55902 19.5619 2.73084C17.8583 4.08388 16.1151 6.30031 16.0403 6.39051C16.0315 6.40769 16.0227 6.42058 16.0095 6.43776C12.928 10.8148 12.6947 17.0431 15.4196 22.305C15.8466 23.1383 16.3308 23.9329 16.8459 24.6631L16.9999 24.8779C17.4357 25.5007 17.9244 26.2052 18.5495 26.755C18.7652 26.9955 18.9985 27.2275 19.2274 27.4508L19.3374 27.5625L19.4299 27.6527C19.6632 27.8718 19.9009 28.0951 20.1474 28.3099H20.1518C20.1694 28.3357 20.1958 28.3529 20.2178 28.3743C20.4952 28.6149 20.7769 28.8425 21.1511 29.1303L21.2523 29.2034C21.5429 29.431 21.8378 29.6458 22.1415 29.8563C22.1724 29.8777 22.2032 29.8992 22.234 29.9207C22.3396 29.9894 22.4453 30.0538 22.5509 30.1269L22.6566 30.1956L22.7798 30.2729C23.0043 30.419 23.2244 30.5521 23.537 30.7282C23.7395 30.8485 23.9552 30.9688 24.0961 31.0375C24.1577 31.0719 24.2237 31.1062 24.3778 31.1878L24.7211 31.3639C24.7388 31.3725 24.818 31.4069 24.8356 31.4155C25.0601 31.5272 25.2934 31.6345 25.5267 31.7376L25.8833 31.8923C26.1166 31.9911 26.3543 32.0856 26.6449 32.1929L26.7769 32.2402C26.7857 32.2488 26.8958 32.2874 26.9046 32.2917C27.1159 32.3648 27.3316 32.4378 27.5473 32.5065L28.0403 32.6654C28.2868 32.7471 28.573 32.8416 28.8855 32.8931C30.4218 33.1422 31.9141 33.2711 33.3272 33.2711C33.4945 33.2711 33.6617 33.2668 33.8246 33.2668C46.2649 33.0005 49.5004 22.6872 49.5312 22.5842C49.6853 22.0644 49.4343 21.5103 48.9325 21.2784C48.4307 21.0464 47.832 21.2096 47.5194 21.6563C44.3676 26.1493 38.4072 28.0479 32.3367 26.4844C32.055 26.4156 31.7821 26.3383 31.4431 26.2309C31.3859 26.2138 31.3375 26.1966 31.245 26.1622C31.0469 26.1021 30.8532 26.0376 30.6331 25.956L30.3206 25.8401C30.1401 25.7713 29.9596 25.7026 29.7395 25.6081L29.5942 25.5437C29.3257 25.432 29.066 25.3074 28.8327 25.1958L28.19 24.8693C28.0447 24.8006 27.917 24.7233 27.719 24.6073L27.6089 24.5471L27.4988 24.4827C27.336 24.3882 27.1731 24.2894 27.0234 24.1863L26.9178 24.1219C26.909 24.1176 26.8209 24.0575 26.8121 24.0489C26.6801 23.9673 26.5524 23.8857 26.4291 23.8083C26.1562 23.6193 25.8877 23.4218 25.5751 23.1812L25.4519 23.0824C22.5465 20.8187 20.3983 17.7948 19.3902 14.5518C18.4526 11.5751 19.1481 7.67913 21.2523 4.13113C21.5252 3.67153 21.424 3.08735 21.0058 2.74372C20.7989 2.57191 20.5436 2.4817 20.2883 2.4817ZM7.88765 5.78057C7.61912 5.78057 7.34619 5.87507 7.13049 6.06406C4.97788 7.94974 3.36673 10.3938 3.19064 10.673C-1.41392 17.2149 -0.524699 27.3821 2.63598 33.5975C2.69761 33.7264 2.76364 33.851 2.82967 33.9755L2.8737 34.0443C2.93092 34.1688 2.99695 34.2977 3.01896 34.3235C3.05418 34.4051 3.107 34.4953 3.12901 34.5211C3.18184 34.6284 3.23466 34.7229 3.33151 34.8862L3.69248 35.4918C3.7453 35.5734 3.79813 35.6593 3.81574 35.6894C3.88617 35.8011 3.961 35.9171 4.03584 36.033L4.21192 36.3079C4.26475 36.3896 4.31757 36.4626 4.35279 36.5055C4.52887 36.7718 4.70496 37.0382 4.89865 37.2916C4.90745 37.3045 4.91625 37.3131 4.92506 37.3217L4.99549 37.4162C5.15396 37.6395 5.31684 37.8543 5.46211 38.0304L6.10481 38.825C6.11362 38.8336 6.18405 38.9152 6.18845 38.9238L6.28089 39.0269C6.47458 39.2589 6.68148 39.4908 6.88838 39.7142C6.91919 39.7486 6.95001 39.7786 6.98082 39.813C7.17891 40.0235 7.38141 40.2339 7.59271 40.453L7.7952 40.642C7.96248 40.8138 8.12976 40.9813 8.30584 41.1403C8.30584 41.1446 8.38948 41.2219 8.38948 41.2219L8.56557 41.3808C8.77687 41.5784 8.99697 41.776 9.16425 41.9134C9.17305 41.9263 9.33152 42.0595 9.34473 42.0681C9.55163 42.2485 9.75853 42.4203 9.96983 42.5878L11.0483 43.4211C11.2288 43.55 11.4137 43.6788 11.625 43.8292C11.6954 43.8807 11.7703 43.9323 11.8451 43.9795C11.8759 44.0053 11.9111 44.0311 11.9331 44.0439L12.7431 44.5723C13.0381 44.7613 13.333 44.9374 13.694 45.1479L13.8877 45.2552C14.1122 45.3841 14.3411 45.513 14.5568 45.6247C14.6844 45.6934 14.8121 45.7535 14.9221 45.8094C15.0762 45.891 15.2435 45.9812 15.4988 46.1014C15.5208 46.1143 15.7013 46.2002 15.7233 46.2088C15.9786 46.3334 16.2384 46.4494 16.5641 46.5911C16.5641 46.5954 16.6698 46.6427 16.6698 46.6427C16.9691 46.7672 17.2596 46.8875 17.6426 47.0378C17.7043 47.0636 17.7659 47.0851 17.7791 47.0894C18.052 47.1925 18.3382 47.2956 18.5715 47.3772C18.5935 47.3858 18.7123 47.433 18.7343 47.4416C19.0469 47.5447 19.355 47.6435 19.7512 47.7638C19.8172 47.7852 19.8877 47.8067 19.8965 47.8067L20.121 47.8754C20.3939 47.9571 20.6668 48.043 20.9618 48.0988C23.0572 48.4725 25.1041 48.6658 27.041 48.6658H27.0454C43.1878 48.6658 48.3294 35.9901 48.3822 35.8612C48.5803 35.3501 48.3646 34.7745 47.8716 34.5082C47.3874 34.2462 46.7711 34.3707 46.4277 34.8046C42.2854 40.1265 34.4717 42.1024 25.5267 40.0965C25.311 40.0449 25.0909 39.9848 24.8752 39.9204L24.4526 39.7958C24.1665 39.7099 23.8804 39.6154 23.603 39.5209C23.5986 39.5209 23.471 39.4736 23.471 39.4736C23.2244 39.392 22.9779 39.2975 22.7622 39.2159L22.5157 39.1214C22.2428 39.014 21.9699 38.9024 21.7057 38.7864L21.5517 38.722C21.3139 38.6146 21.085 38.5115 20.8561 38.3998C20.8385 38.3912 20.658 38.3053 20.6404 38.301C20.482 38.2237 20.3235 38.1421 20.121 38.0347L19.201 37.5536C19.1085 37.4935 19.0117 37.4376 18.9192 37.3904C18.6419 37.2229 18.3558 37.0553 18.074 36.8792C18.008 36.8406 17.9508 36.7976 17.8407 36.7246C17.647 36.6043 17.4577 36.4798 17.1804 36.2908L17.0704 36.2134C16.8811 36.0846 16.6962 35.9471 16.5421 35.8354C16.4453 35.7667 16.3484 35.6894 16.1899 35.5734C16.0491 35.466 15.9082 35.3629 15.7761 35.2599L15.5296 35.0623C15.3227 34.8991 15.129 34.7272 14.9266 34.5597C14.9001 34.5339 14.8781 34.5168 14.8473 34.4953C14.6228 34.2934 14.3939 34.0915 14.121 33.8381L13.3242 33.0649C13.1305 32.8716 12.9368 32.674 12.7167 32.4378C12.5142 32.2187 12.3205 31.9997 12.0608 31.699L11.5854 31.132C11.5282 31.0504 11.4665 30.9688 11.3917 30.8829C11.2288 30.6681 11.0659 30.4576 10.9031 30.2342C6.51861 24.341 5.37407 12.039 8.79007 7.53309C9.13343 7.08207 9.0718 6.44635 8.6404 6.06406C8.4291 5.87507 8.15617 5.78057 7.88765 5.78057Z" fill="#E7E7E7"/>
</svg>
