<svg width="65" height="63" viewBox="0 0 65 63" fill="none" xmlns="http://www.w3.org/2000/svg">
<path d="M0.661011 0.155716V62.3644H64.7288V0.155716H0.661011ZM35.5265 48.6729C35.5265 54.7272 31.8655 57.4905 26.5312 57.4905C21.7119 57.4905 18.9232 55.0743 17.4931 52.1444L22.3983 49.27C23.3422 50.8947 24.2002 52.2694 26.2738 52.2694C28.2473 52.2694 29.5058 51.5195 29.5058 48.5896V28.7189H35.5265V48.6729ZM49.7701 57.4905C44.1785 57.4905 40.5604 54.9077 38.8014 51.5195L43.7066 48.7701C44.9936 50.8114 46.6811 52.3249 49.6414 52.3249C52.1298 52.3249 53.7315 51.1168 53.7315 49.4367C53.7315 47.4371 52.1012 46.7289 49.3411 45.5486L47.8395 44.9237C43.492 43.1325 40.6176 40.8691 40.6176 36.1062C40.6176 31.7183 44.0641 28.3857 49.4269 28.3857C53.2595 28.3857 56.0053 29.6771 57.9788 33.0652L53.2881 35.9813C52.2585 34.19 51.143 33.4818 49.4126 33.4818C47.6536 33.4818 46.5381 34.5649 46.5381 35.9813C46.5381 37.7309 47.6536 38.439 50.2421 39.536L51.7436 40.1609C56.8633 42.2854 59.7378 44.4655 59.7378 49.3533C59.7378 54.6022 55.4762 57.4905 49.7701 57.4905Z" fill="#E7E7E7"/>
</svg>
