<svg width="61" height="50" viewBox="0 0 61 50" fill="none" xmlns="http://www.w3.org/2000/svg">
<path d="M49.2324 15.9714C48.597 15.7742 47.9615 15.588 47.326 15.4127C47.4319 15.0074 47.526 14.6021 47.6202 14.1969C49.0677 7.66838 48.1144 2.4215 44.9017 0.690793C41.8066 -0.963234 36.7579 0.756516 31.6504 4.89706C31.1444 5.30235 30.6501 5.72955 30.1794 6.15675C29.8616 5.87195 29.5321 5.58715 29.2026 5.31331C23.848 0.887962 18.4816 -0.974188 15.2688 0.76747C12.1855 2.43245 11.2676 7.37262 12.5621 13.5506C12.6915 14.164 12.8328 14.7665 12.9975 15.3799C12.2443 15.577 11.5029 15.7961 10.8086 16.0261C4.52427 18.0526 0.0169678 21.2511 0.0169678 24.5592C0.0169678 27.9768 4.81848 31.4053 11.3499 33.4865C11.8795 33.6508 12.4091 33.8151 12.9504 33.9576C12.7739 34.6148 12.6209 35.2611 12.4797 35.9292C11.244 42.0086 12.209 46.8283 15.2924 48.4823C18.4698 50.1911 23.8127 48.4385 29.0143 44.1994C29.4262 43.8598 29.8381 43.5093 30.25 43.1369C30.7678 43.6079 31.3092 44.057 31.8505 44.4951C36.8874 48.5261 41.8654 50.1583 44.937 48.5042C48.1144 46.7954 49.1501 41.6143 47.8085 35.3049C47.7025 34.8229 47.5849 34.33 47.4554 33.8261C47.832 33.7275 48.1968 33.618 48.5616 33.5084C55.352 31.4163 60.2712 28.0315 60.2712 24.5592C60.2712 21.2402 55.6345 18.0197 49.2324 15.9714ZM33.3098 6.67158C37.6876 3.12254 41.7713 1.73141 43.6307 2.7282C45.6195 3.79072 46.3845 8.08462 45.137 13.7258C45.0547 14.0983 44.9723 14.4597 44.8664 14.8212C42.2538 14.2735 39.6059 13.8792 36.9462 13.6601C35.4163 11.6227 33.7452 9.67293 31.9329 7.84364C32.3919 7.43835 32.8391 7.05496 33.3098 6.67158ZM19.6937 30.2442C20.2939 31.1972 20.9059 32.1502 21.5532 33.0812C19.7173 32.895 17.8932 32.6212 16.0926 32.2597C16.6104 30.6824 17.2577 29.0502 18.0109 27.3853C18.5522 28.3492 19.1053 29.3022 19.6937 30.2442ZM16.1279 17.0668C17.8226 16.7162 19.6231 16.4314 21.4943 16.2124C20.8706 17.1215 20.2586 18.0526 19.682 18.9946C19.1053 19.9257 18.5404 20.8787 18.0109 21.8426C17.2694 20.2105 16.6457 18.6112 16.1279 17.0668ZM19.3525 24.6139C20.1292 23.1023 20.9765 21.6235 21.8709 20.1667C22.7653 18.7098 23.7303 17.2968 24.7424 15.9057C26.5077 15.7852 28.3082 15.7194 30.1441 15.7194C31.98 15.7194 33.7923 15.7852 35.5458 15.9057C36.5461 17.2858 37.4993 18.6989 38.4055 20.1448C39.3117 21.5907 40.159 23.0695 40.9593 24.5701C40.1708 26.0818 39.3234 27.5715 38.4173 29.0393C37.5229 30.4961 36.5696 31.9092 35.5693 33.3113C33.8158 33.4318 31.9917 33.4865 30.1441 33.4865C28.2964 33.4865 26.5076 33.4318 24.7777 33.3332C23.7538 31.942 22.7888 30.5181 21.8827 29.0612C20.9765 27.6043 20.1409 26.1256 19.3525 24.6139ZM40.6062 30.2223C41.2064 29.2584 41.7713 28.2835 42.3244 27.2976C43.0776 28.8859 43.7366 30.4961 44.3132 32.1502C42.4891 32.5336 40.6415 32.8293 38.7821 33.0265C39.4176 32.1064 40.0178 31.1643 40.6062 30.2223ZM42.3008 21.8426C41.7477 20.8787 41.1828 19.9148 40.5944 18.9727C40.0178 18.0416 39.4176 17.1215 38.7939 16.2124C40.6886 16.4314 42.5009 16.7272 44.1956 17.0887C43.6542 18.7098 43.0187 20.2872 42.3008 21.8426ZM30.1676 9.51957C31.4033 10.7683 32.5684 12.0828 33.6511 13.441C31.3209 13.3425 28.979 13.3425 26.6489 13.441C27.8022 12.028 28.9908 10.7135 30.1676 9.51957ZM16.5163 2.80488C18.4934 1.73141 22.883 3.26494 27.508 7.07687C27.8022 7.31786 28.0964 7.58075 28.4024 7.84364C26.5783 9.67293 24.8954 11.6227 23.3537 13.6601C20.6941 13.8792 18.0579 14.2626 15.4453 14.7993C15.2924 14.2407 15.1629 13.6711 15.0335 13.1015C13.9272 7.79982 14.6569 3.80168 16.5163 2.80488ZM13.633 31.6792C13.1387 31.5477 12.6562 31.4053 12.1737 31.252C9.66706 30.5181 6.81911 29.3569 4.75964 27.8344C3.57103 27.0676 2.77077 25.8846 2.54717 24.5592C2.54717 22.5546 6.26599 19.9914 11.6324 18.2498C12.3032 18.0307 12.9858 17.8335 13.6683 17.6473C14.4686 20.0243 15.4336 22.3575 16.5516 24.6139C15.4218 26.9033 14.445 29.2693 13.633 31.6792ZM27.355 42.4139C25.4132 44.0679 23.1654 45.3824 20.7176 46.2806C19.4113 46.8612 17.9049 46.9159 16.5633 46.423C14.6922 45.4152 13.9155 41.5485 14.9746 36.3455C15.1041 35.7321 15.2453 35.1187 15.41 34.5162C18.0462 35.042 20.7058 35.4035 23.4008 35.5897C24.9542 37.638 26.6606 39.5988 28.4847 41.439C28.1082 41.7786 27.7316 42.1072 27.355 42.4139ZM30.2382 39.7521C29.0379 38.5472 27.8375 37.2108 26.6724 35.7759C27.8022 35.8197 28.9672 35.8416 30.1441 35.8416C31.3562 35.8416 32.5448 35.8197 33.7217 35.7649C32.639 37.1561 31.4739 38.4815 30.2382 39.7521ZM45.6195 43.0383C45.5136 44.3746 44.8075 45.6234 43.6778 46.4668C41.8066 47.4746 37.8171 46.1601 33.5099 42.7206C33.0156 42.3263 32.5213 41.8991 32.0153 41.4609C33.8158 39.6097 35.4752 37.649 36.9815 35.5897C39.6765 35.3815 42.3597 34.9982 45.0076 34.4395C45.1253 34.8886 45.2312 35.3377 45.3253 35.7759C45.902 38.1419 45.9961 40.6065 45.6195 43.0383ZM47.7614 31.2629C47.4319 31.3615 47.1024 31.4601 46.7611 31.5477C45.9373 29.1598 44.9252 26.8266 43.7601 24.5592C44.8899 22.3246 45.8431 20.0243 46.6434 17.6692C47.2554 17.8335 47.8438 18.0088 48.4087 18.184C53.8927 19.9367 57.741 22.5437 57.741 24.5373C57.741 26.6842 53.6338 29.4555 47.7614 31.2629ZM30.1441 29.6198C33.1215 29.6198 35.534 27.3743 35.534 24.603C35.534 21.8317 33.1215 19.5861 30.1441 19.5861C27.1667 19.5861 24.7542 21.8317 24.7542 24.603C24.7542 27.3743 27.1667 29.6198 30.1441 29.6198Z" fill="#E7E7E7"/>
</svg>
