<svg width="82" height="66" viewBox="0 0 82 66" fill="none" xmlns="http://www.w3.org/2000/svg">
<path fill-rule="evenodd" clip-rule="evenodd" d="M1.29045 1.28557L0 2.57062V25.6103C0 41.3807 0.183975 49.0533 0.583462 49.9267C1.26522 51.4176 3.0913 52.3654 5.28112 52.3654H6.83333V58.5445C6.83333 62.652 7.04464 64.9341 7.4641 65.352C8.33141 66.216 19.5276 66.216 20.3949 65.352C20.8143 64.9341 21.0256 62.652 21.0256 58.5445V52.3654H26.4849H31.9448L30.791 56.9473L29.6377 61.5293L27.1746 61.689C24.5748 61.8571 23.3432 62.9929 23.9766 64.6377C24.467 65.9118 25.7275 66.0259 37.5266 65.8667C47.3156 65.7348 48.5713 65.619 49.088 64.8021C50.0289 63.3144 48.861 62.0786 46.3368 61.8922C44.4587 61.7534 44.1144 61.5366 43.8385 60.3212C43.6624 59.5457 43.1882 57.581 42.7851 55.9555C42.3814 54.3296 42.0513 52.8571 42.0513 52.6827C42.0513 52.5083 44.8897 52.3654 48.359 52.3654H54.6667V57.6422C54.6667 62.7761 54.7082 62.9604 56.2031 64.4497L57.7396 65.9804H68.5799C79.3881 65.9804 79.4233 65.9767 80.7096 64.6948L82 63.4097V45.0342V26.6587L80.7096 25.3736C79.6504 24.318 78.8987 24.0881 76.5044 24.0881H73.5897V13.3296C73.5897 2.60465 73.5855 2.56643 72.2993 1.28557L71.0094 0H36.7949H2.58037L1.29045 1.28557ZM69.3846 14.1386V24.0881H63.8901C57.8915 24.0881 56.1395 24.5824 55.2501 26.5267C54.8864 27.3222 54.6667 31.6392 54.6667 37.9895V48.1761H37.8462H21.0256V46.4481C21.0256 43.7298 20.3917 43.4633 13.9295 43.4633C7.46726 43.4633 6.83333 43.7298 6.83333 46.4481C6.83333 47.9421 6.65567 48.1761 5.51923 48.1761H4.20513V26.1827V4.18923H36.7949H69.3846V14.1386ZM79.8974 45.296V59.6965H68.3333H56.7692V45.6453C56.7692 37.9167 56.9269 31.4365 57.1198 31.2448C57.3122 31.0527 62.5161 30.8956 68.6839 30.8956H79.8974V45.296ZM19.4487 53.6745V61.7911H14.1923H8.9359V53.6745V45.5579H14.1923H19.4487V53.6745ZM69.3047 61.7309C70.2593 62.3336 69.8603 64.0926 68.7197 64.3109C67.6984 64.5073 67.0082 63.2579 67.4723 62.053C67.8145 61.1643 68.2787 61.0831 69.3047 61.7309Z" fill="white"/>
</svg>
