<svg width="74" height="74" viewBox="0 0 74 74" fill="none" xmlns="http://www.w3.org/2000/svg">
<path fill-rule="evenodd" clip-rule="evenodd" d="M60.3855 3.48257L56.8537 6.96513V10.0293V13.0933L55.3349 14.6187L53.8161 16.1441L53.041 15.5224C49.7424 12.8763 45.0701 10.5678 40.8544 9.50121C38.003 8.77986 36.214 8.5737 32.8025 8.5737C29.905 8.5737 28.9037 8.65604 26.5928 9.08436C21.3715 10.0521 16.4699 12.3401 12.047 15.874C10.9251 16.7705 8.47077 19.1922 7.57963 20.2819C3.36015 25.442 0.92028 31.126 0.165472 37.554C-0.0323132 39.2387 -0.0582644 43.0465 0.117277 44.6388C0.400608 47.2098 0.970607 49.8102 1.69075 51.817C3.55775 57.0198 5.88177 60.7526 9.53681 64.4196C12.1829 67.0742 14.8078 68.9612 18.1586 70.6175C21.1047 72.0738 23.428 72.8734 26.5001 73.4884C28.5238 73.8936 29.8349 74.0007 32.7626 74C35.6127 73.9993 36.9679 73.8931 38.8694 73.5215C44.5738 72.4063 49.6932 69.9382 54.0269 66.2141C55.127 65.2687 57.4849 62.8529 58.2691 61.8678C61.6215 57.6564 63.663 53.3342 64.8583 47.9172C65.3297 45.7808 65.417 44.7401 65.417 41.2585C65.417 37.8788 65.3292 36.7768 64.9044 34.822C64.0542 30.9102 62.7388 27.4946 60.9276 24.4958C60.2975 23.4523 59.9715 22.9717 58.6759 21.1752C58.3873 20.7751 58.1512 20.3946 58.1512 20.3295C58.1512 20.2646 58.8081 19.5385 59.611 18.7162L61.0708 17.2208L63.997 17.2233L66.9232 17.2258L70.4616 13.6695C72.4077 11.7135 74 10.0648 74 10.0058C74 9.94676 73.364 9.59354 72.5866 9.22087C71.8092 8.8482 70.3807 8.16343 69.4122 7.69917C68.4437 7.23482 67.5887 6.82112 67.5122 6.77963C67.352 6.69276 66.952 5.9189 65.2887 2.47736C64.6302 1.11486 64.0523 0 64.0044 0C63.9565 0 62.328 1.56717 60.3855 3.48257ZM37.1586 12.6383C41.0357 13.2849 44.3935 14.4887 47.4464 16.3265C49.2499 17.4122 50.9985 18.6494 51.0095 18.8475C51.0124 18.8991 50.3322 19.6223 49.4978 20.4548L47.9811 21.9683L47.3893 21.4878C45.7757 20.1776 42.3016 18.4677 39.5927 17.6506C37.2078 16.9311 34.978 16.6964 31.4586 16.7943C29.2422 16.856 28.8134 16.9108 27.0098 17.3637C23.4826 18.2494 20.8681 19.4851 18.0196 21.6127C16.7491 22.5616 13.9707 25.3646 12.9587 26.7184C10.8133 29.5881 9.45488 32.5992 8.6148 36.3463C8.29014 37.7945 8.1589 39.8608 8.22915 42.4161C8.2868 44.5131 8.38996 45.3467 8.79414 46.9826C10.8714 55.3895 16.937 61.9803 25.0727 64.6707C29.7018 66.2014 35.1436 66.2718 39.7924 64.8611C48.8678 62.1068 55.42 54.6582 57.0516 45.2408C57.3312 43.6268 57.3982 40.1389 57.1823 38.4279C56.6691 34.3581 55.513 31.2264 53.1803 27.5866C52.7029 26.8416 52.3122 26.1935 52.3122 26.1464C52.3122 26.042 55.172 23.0603 55.2721 23.0603C55.3679 23.0603 56.7049 24.9315 57.4007 26.0393C59.2962 29.0575 60.8154 33.1665 61.454 37.0026C61.69 38.4202 61.6942 44.0072 61.4604 45.4526C59.8939 55.1377 54.2005 62.9725 45.6391 67.2247C40.623 69.716 35.4538 70.6527 29.7903 70.0969C24.2133 69.5495 19.059 67.4542 14.6367 63.9367C13.3347 62.9011 11.2412 60.8126 10.1924 59.5029C4.65391 52.5871 2.55057 43.6056 4.45585 35.0072C6.30747 26.6503 11.7404 19.5771 19.3699 15.5902C22.0072 14.2121 25.1743 13.1607 28.261 12.6387C29.6484 12.404 31.1695 12.3271 33.5903 12.3688C35.3543 12.3993 36.0326 12.4505 37.1586 12.6383ZM36.1235 20.708C37.986 20.9644 40.5178 21.8206 42.5888 22.8945C43.7673 23.5056 45.1122 24.4186 45.1533 24.6356C45.1678 24.7121 44.4961 25.4548 43.6466 26.3017L42.1138 27.8298L41.8142 27.6545C40.0641 26.6304 38.2878 25.8527 36.6952 25.4135C35.801 25.1669 35.6728 25.1566 33.0524 25.1204C30.0579 25.0791 29.6598 25.122 27.9389 25.6716C25.391 26.4851 23.2384 27.7656 21.3682 29.5802C19.4081 31.4822 18.0925 33.6023 17.1752 36.3373C16.6375 37.9403 16.5058 38.9288 16.501 41.3974C16.4975 43.2266 16.5227 43.6 16.7074 44.4536C18.2017 51.3572 23.5992 56.5046 30.3492 57.4632C32.2054 57.7268 34.6753 57.6039 36.5732 57.1535C42.0252 55.8597 46.4122 51.8329 48.2757 46.4121C48.8743 44.6707 48.9757 43.934 48.9757 41.3236C48.9757 37.8402 48.7415 36.8875 47.0377 33.4367C46.6763 32.7047 46.3805 32.0601 46.3805 32.0042C46.3805 31.8775 49.3607 28.8945 49.4864 28.8955C49.611 28.8964 50.7021 30.5924 51.2735 31.6732C52.2796 33.5763 53.052 35.9952 53.3897 38.2995C53.5858 39.638 53.6127 42.5946 53.4406 43.8979C52.5416 50.7081 48.5164 56.5222 42.4879 59.7187C39.914 61.0835 37.12 61.8789 34.2708 62.0582C30.183 62.3155 26.8031 61.6399 23.2963 59.8646C17.857 57.111 13.9312 52.1603 12.4708 46.2132C11.7906 43.4433 11.7322 39.6533 12.3281 36.952C14.0099 29.3285 19.5753 23.3865 27.0699 21.2128C28.1468 20.9004 29.4976 20.639 30.4391 20.5607C31.6689 20.4584 34.922 20.5427 36.1235 20.708ZM34.8302 29.0344C35.2706 29.1111 36.0372 29.3027 36.5338 29.4601C37.4298 29.7442 39.244 30.5381 39.244 30.6461C39.244 30.677 38.3759 31.5691 37.3149 32.6284L35.3858 34.5543L34.6039 34.3491C34.0242 34.1969 33.5584 34.1439 32.8025 34.144C31.5064 34.1442 30.7636 34.3216 29.5146 34.9291C28.6526 35.3483 28.4441 35.5014 27.6568 36.2924C26.3672 37.5885 25.7987 38.7617 25.6217 40.4928C25.4684 41.9931 25.8413 43.7773 26.5589 44.9771C27.1677 45.9949 28.6856 47.3455 29.7903 47.8521C30.7071 48.2727 31.1276 48.3662 32.3127 48.4134C33.3048 48.4528 33.6278 48.4286 34.3564 48.2604C37.0534 47.6376 39.0168 45.7164 39.7052 43.0264C39.9653 42.0105 39.9627 40.494 39.6992 39.4931L39.5057 38.7579L41.4202 36.8769C42.4731 35.8424 43.3839 35.0106 43.4442 35.0285C43.7237 35.1114 44.636 37.3537 44.9113 38.6346C45.1816 39.8921 45.2043 42.6929 44.9534 43.8362C44.0019 48.1727 40.8348 51.7299 36.7326 53.0693C35.4045 53.503 34.3649 53.6569 32.7562 53.658C30.6538 53.6595 29.0248 53.3139 27.3342 52.5077C23.9084 50.874 21.2983 47.53 20.5467 43.8119C20.3263 42.7215 20.3319 39.93 20.5566 38.7754C21.2713 35.1049 24.0401 31.6383 27.6036 29.9524C28.5171 29.5202 29.7877 29.1247 30.6708 28.9975C31.6168 28.8613 33.9558 28.882 34.8302 29.0344Z" fill="white"/>
</svg>
