<svg width="102" height="94" viewBox="0 0 102 94" fill="none" xmlns="http://www.w3.org/2000/svg">
<path fill-rule="evenodd" clip-rule="evenodd" d="M29.6653 0.287505C27.8798 0.918128 26.6078 2.11873 25.6702 4.05803C25.4299 4.55516 25.3628 6.67118 25.2803 16.3565L25.1806 28.0545L23.0181 24.3C21.0276 20.8441 20.8805 20.5181 21.1673 20.1998C22.1908 19.0639 22.4052 16.5706 21.6135 15.0088C21.3502 14.4896 20.9244 13.8676 20.6669 13.6268C19.8768 12.8877 18.4967 12.3728 17.2929 12.368C16.2317 12.3638 16.15 12.3256 15.5225 11.5412C14.63 10.4257 12.809 9.28253 11.2495 8.85865C5.57545 7.31601 -0.0535819 11.9555 0.431247 17.7752C0.491228 18.4951 0.708634 19.5308 0.914282 20.0768L1.28812 21.0694L0.831784 21.7463C-0.483212 23.6968 -0.219177 26.1909 1.4832 27.9004C2.42915 28.8506 4.02472 29.4536 5.29269 29.3402L6.02242 29.2749L13.808 42.8066C18.0901 50.2492 21.7173 56.4864 21.8683 56.6671C22.0192 56.848 22.8466 57.4912 23.7066 58.0964L25.2705 59.1972L25.3253 74.2561L25.3799 89.3152L25.8733 90.3158C26.5024 91.5917 27.6964 92.7909 28.9668 93.4227L29.9632 93.9182L40.8667 93.9749C51.6011 94.0305 51.7769 94.0249 52.1754 93.6246C52.7188 93.0789 52.7117 91.9982 52.1613 91.4976C51.7631 91.1356 51.2093 91.1114 41.1515 91.0163C30.9189 90.9196 30.5375 90.9024 29.8637 90.5048C29.4801 90.2786 28.966 89.7382 28.7211 89.3039C28.3002 88.5578 28.2757 88.2875 28.2725 84.3618L28.2694 80.2091H54.2887H80.3082L80.2439 84.3618C80.1721 89.0068 80.0922 89.3278 78.7509 90.3555L78.0192 90.9162L67.2749 91.0163L56.5305 91.1164L56.1497 91.5889C55.6537 92.2043 55.6645 93.1129 56.174 93.6246C56.5726 94.0249 56.7483 94.0305 67.4827 93.9749L78.3863 93.9182L79.5143 93.3619C80.753 92.7509 81.8082 91.6998 82.5126 90.3749L82.9695 89.5153L83.0255 77.9575L83.0815 66.3998H92.0517H101.022L101.511 65.9085C102.134 65.2825 102.134 64.5151 101.511 63.8891L101.022 63.3978H92.0442H83.0666L83.1178 48.6379L83.1688 33.878L92.2036 33.7779L101.238 33.6779L101.619 33.2054C102.104 32.6044 102.104 31.9495 101.619 31.3485L101.238 30.876L92.1594 30.8202L83.0801 30.7641L83.0249 17.6113L82.9695 4.4583L82.5126 3.59872C81.8082 2.27384 80.753 1.22273 79.5143 0.611723L78.3863 0.0553497L54.4736 0.0131213C33.1152 -0.0245039 30.4653 0.00491586 29.6653 0.287505ZM78.7507 3.61814C80.254 4.76971 80.1731 3.98058 80.2353 18.1088L80.2907 30.7585L74.4883 30.8174L68.6859 30.876L68.3051 31.3485C67.7874 31.9909 67.827 32.6976 68.4137 33.2866L68.9027 33.7779H74.5911H80.2794V48.5879V63.3978H74.5911H68.9027L68.4137 63.8891C67.7902 64.5151 67.7902 65.2825 68.4137 65.9085L68.9027 66.3998H74.5943H80.2859L80.2327 71.7534L80.1797 77.107L54.2245 77.1578L28.2694 77.2084V69.3025C28.2694 64.9542 28.3174 61.3965 28.376 61.3965C28.4345 61.3965 29.3753 62.0243 30.4667 62.7914C33.0168 64.5842 33.5122 64.8321 34.5464 64.8321C35.9963 64.8321 37.441 63.7402 37.7282 62.4275C37.8464 61.8868 36.9572 49.4527 36.7263 48.4184C36.6687 48.16 34.7423 44.6849 32.4455 40.6958L28.2694 33.4429L28.2725 19.4509L28.2759 5.45897L28.7251 4.66244C28.9762 4.21714 29.5238 3.66657 29.9671 3.4136L30.7603 2.9611L54.3895 3.00933L78.0188 3.05736L78.7507 3.61814ZM50.7871 6.95998C50.2503 7.49914 50.2606 8.58266 50.8074 9.0804C51.1667 9.40762 51.6077 9.47106 53.9163 9.5275C56.9121 9.60095 57.5984 9.44004 57.9527 8.58066C58.2267 7.91662 57.9657 7.08366 57.3858 6.77205C57.1592 6.65017 55.7529 6.55971 54.0882 6.55971C51.4513 6.55971 51.1492 6.59633 50.7871 6.95998ZM11.4368 12.0752C11.9882 12.3364 12.6937 12.8167 13.0045 13.1425L13.5695 13.7349L12.5002 14.3439C11.9121 14.6789 9.72709 15.9428 7.6447 17.1522L3.85853 19.3515L3.58732 18.7094C3.21468 17.8275 3.38605 15.6896 3.91233 14.6545C5.32955 11.8673 8.61854 10.7399 11.4368 12.0752ZM18.3167 15.5717C19.3316 16.1171 19.5092 17.7186 18.6441 18.5263C18.0668 19.0655 5.85742 26.1386 5.23191 26.2961C3.59011 26.71 2.29444 24.5626 3.41016 23.2769C3.65686 22.9929 6.72804 21.097 10.2352 19.0641C16.748 15.289 17.3261 15.0392 18.3167 15.5717ZM52.232 19.5902C48.0112 20.2965 44.4333 23.6638 43.3078 27.9883C42.819 29.8669 42.987 32.8199 43.687 34.6539C46.9567 43.2201 58.4644 44.5668 63.5128 36.9741C66.0926 33.0943 66.0545 28.2044 63.4146 24.3152C62.2662 22.6237 61.053 21.5572 59.2561 20.66C56.9886 19.5278 54.6934 19.1782 52.232 19.5902ZM89.8333 20.738C89.2342 21.2251 89.2261 22.2384 89.8163 22.8318C90.239 23.2565 90.4155 23.2729 95.1801 23.3343C100.566 23.4036 101.391 23.2943 101.768 22.4628C102.09 21.7519 102.062 21.5021 101.587 20.8963L101.174 20.369H95.7305C90.7373 20.369 90.2495 20.3996 89.8333 20.738ZM25.4112 34.3892L32.2524 46.2863L31.3724 46.5117C30.4139 46.7574 29.4365 47.3749 28.9877 48.0181C28.6376 48.5202 29.1804 49.3536 24.2763 40.7826C22.1664 37.0952 20.3015 33.9657 20.1319 33.828C19.5845 33.3835 18.5774 33.5224 18.121 34.1052C17.8939 34.3952 17.7079 34.7792 17.7079 34.9587C17.7079 35.1383 19.5911 38.5632 21.8926 42.5696C24.1942 46.5761 26.0774 49.8843 26.0774 49.9214C26.0774 49.9586 25.8815 49.9888 25.6421 49.9888C24.9744 49.9888 23.5526 50.7531 23.0054 51.4062L22.5148 51.9919L21.4355 50.1397C16.7542 42.1053 8.88397 28.2791 8.86444 28.0549C8.85109 27.903 9.60254 27.3376 10.5341 26.7987L12.228 25.8186L12.55 26.346C12.7269 26.636 13.3827 27.7559 14.0071 28.8346C14.6874 30.0102 15.333 30.8832 15.619 31.0141C16.6042 31.4648 17.9144 30.3434 17.5924 29.3248C17.522 29.1022 16.8915 27.93 16.1913 26.72C15.491 25.51 14.9181 24.4583 14.9181 24.3831C14.9181 24.1891 18.1677 22.3643 18.3881 22.4343C18.4881 22.4662 21.6485 27.8458 25.4112 34.3892ZM57.1638 22.9499C60.6931 24.2966 62.9604 28.134 62.3949 31.8038C62.1456 33.4207 61.4493 34.9952 60.5078 36.0709L59.8145 36.863L58.9535 36.1225C56.3005 33.842 52.2559 33.8878 49.3091 36.2316L48.5285 36.8526L47.9417 36.1657C47.6191 35.7881 47.083 34.9069 46.7508 34.2074C44.5784 29.6336 47.1273 24.052 52.0194 22.6701C53.4105 22.277 55.7312 22.4033 57.1638 22.9499ZM52.6917 24.6582C51.6274 25.0553 50.9981 25.5522 50.2949 26.5505C49.4755 27.7143 49.3378 29.723 49.9856 31.0669C51.3421 33.8812 54.9497 34.6625 57.1923 32.6276C59.2591 30.7521 59.4279 27.895 57.5894 25.9043C56.4157 24.6336 54.2413 24.0805 52.6917 24.6582ZM89.9897 25.8226C89.1175 26.4849 89.2518 27.962 90.2208 28.3651C90.5989 28.5224 92.4054 28.5753 96.0047 28.534C101.232 28.4744 101.239 28.4738 101.619 28.0019C102.137 27.3594 102.097 26.6528 101.511 26.0638L101.022 25.5724H95.6705C91.6978 25.5724 90.2342 25.6369 89.9897 25.8226ZM55.3857 27.9586C56.1081 28.6841 56.1284 29.3532 55.4522 30.1601C54.4246 31.3867 52.5407 30.6845 52.5407 29.0748C52.5407 27.4957 54.255 26.8231 55.3857 27.9586ZM55.8207 37.6952C57.2204 38.1741 57.3557 38.4851 56.2824 38.7565C54.6637 39.166 51.3849 38.9234 51.3849 38.3944C51.3849 38.2443 52.1672 37.8154 52.9791 37.5205C53.5741 37.3043 54.9204 37.3872 55.8207 37.6952ZM45.2714 46.7092C44.2163 47.232 44.0118 47.9649 44.0126 51.2198C44.0132 53.7471 44.0617 54.171 44.4156 54.754C45.1529 55.9688 45.3422 55.9928 54.1747 55.9928C62.8391 55.9928 63.0611 55.9676 63.9056 54.8893C64.3063 54.3777 64.3376 54.1144 64.3376 51.2527C64.3376 47.8308 64.18 47.2258 63.1485 46.69C62.2606 46.2289 46.2064 46.2461 45.2714 46.7092ZM33.6393 49.5779C33.8516 49.7128 33.9962 50.5988 34.1863 52.927C34.4856 56.5936 34.765 56.0255 31.8377 57.7046L29.911 58.8099L27.2967 56.9875C24.4515 55.004 24.3471 54.8467 25.0788 53.6413C25.4128 53.0909 25.5903 52.9908 26.2316 52.9908C26.6483 52.9908 27.4671 53.1597 28.051 53.3663C28.6348 53.5728 29.2836 53.6969 29.4929 53.6418C30.0989 53.4827 30.597 52.682 30.7345 51.6469C30.8045 51.1202 31.0392 50.3967 31.2564 50.0388C31.6032 49.4675 31.7544 49.3888 32.5009 49.3914C32.9684 49.3932 33.4807 49.4771 33.6393 49.5779ZM61.3485 51.1896V52.9908H54.1747H47.0009V51.1896V49.3884H54.1747H61.3485V51.1896ZM89.7424 53.3937C89.5427 53.6152 89.3795 54.0643 89.3795 54.3918C89.3795 54.7192 89.5427 55.1683 89.7424 55.3898C90.0897 55.7751 90.3468 55.7927 95.6396 55.7927H101.174L101.587 55.2653C101.814 54.9753 102 54.5823 102 54.3918C102 54.2012 101.814 53.8082 101.587 53.5182L101.174 52.9908H95.6396C90.3468 52.9908 90.0897 53.0084 89.7424 53.3937ZM89.8333 58.5634C89.2342 59.0505 89.2261 60.0638 89.8163 60.6572C90.239 61.0818 90.4155 61.0982 95.1801 61.1597C100.566 61.2289 101.391 61.1197 101.768 60.2881C102.09 59.5772 102.062 59.3275 101.587 58.7217L101.174 58.1943H95.7305C90.7373 58.1943 90.2495 58.2249 89.8333 58.5634ZM34.7244 59.9119C34.9013 60.3752 34.872 61.7565 34.6827 61.8742C34.4974 61.989 32.8197 60.9249 32.8213 60.6934C32.8223 60.5511 34.1951 59.6553 34.4753 59.6141C34.5458 59.6036 34.6578 59.7377 34.7244 59.9119ZM45.0514 60.7082C44.4921 61.1017 44.0118 62.0201 44.0118 62.6965C44.0118 62.9871 44.237 63.442 44.5232 63.7294C44.9357 64.1437 45.1573 64.2193 45.669 64.1201C46.0179 64.0524 46.4523 63.8171 46.6343 63.5973C46.9539 63.2115 47.2122 63.1977 54.1568 63.1977H61.3485V64.9989V66.8001H48.5252C39.6767 66.8001 35.5061 66.8687 35.0701 67.0212C34.0048 67.3943 33.7442 68.3591 34.4613 69.2747L34.8742 69.8021L48.7591 69.8013C62.2847 69.8007 62.6607 69.7903 63.2964 69.401C63.6553 69.1813 64.0365 68.7704 64.1433 68.488C64.2501 68.2058 64.3376 66.5757 64.3376 64.8658V61.7567L63.6601 61.0762L62.9825 60.3958H54.2391C46.6382 60.3958 45.4374 60.4366 45.0514 60.7082ZM52.3852 81.8602C50.6221 82.765 49.6791 84.7559 50.1596 86.5597C50.6372 88.3535 51.965 89.5373 53.7349 89.7478C56.8944 90.1237 59.3129 86.7997 57.9816 83.9115C56.9755 81.7289 54.4471 80.8023 52.3852 81.8602ZM55.0059 84.7431C55.7621 85.4304 55.2299 86.8135 54.2094 86.8135C53.1435 86.8135 52.5939 85.5713 53.3089 84.7779C53.7196 84.3222 54.5246 84.3056 55.0059 84.7431Z" fill="white"/>
</svg>
