<svg width="68" height="90" viewBox="0 0 68 90" fill="none" xmlns="http://www.w3.org/2000/svg">
<path fill-rule="evenodd" clip-rule="evenodd" d="M5.52823 0.249239C2.91364 0.898212 0.968663 2.85691 0.269743 5.54473C0.031973 6.45896 0.00073813 11.0487 0.00073813 45.0008C0.00073813 87.0286 -0.0633102 84.3834 1.00183 86.3436C1.90325 88.003 3.80751 89.3881 5.75617 89.8024C6.41526 89.9425 12.8315 90 27.7854 90C46.1756 90 49.0173 89.9654 49.9175 89.7305C52.8481 88.9659 54.8441 86.739 55.2688 83.7599C55.3653 83.0831 55.4457 79.7808 55.4476 76.4211L55.4511 70.3128L59.7941 70.3118C62.4235 70.3113 64.4128 70.2343 64.8357 70.1167C68.0717 69.2167 69.0847 65.1422 66.6532 62.8073C65.5538 61.7516 65.2469 61.6997 60.1068 61.6997H55.4511V60.7458V59.7916L60.1451 59.735C64.5532 59.6818 64.8819 59.6552 65.5433 59.3005C67.1525 58.4371 67.9731 57.1101 67.9731 55.3717C67.9731 54.0579 67.5869 53.1509 66.6532 52.2713C65.305 51.0017 65.9635 51.0708 54.6781 51.0143C47.7037 50.9795 44.2219 51.0251 43.5756 51.1595C42.2801 51.4288 41.2709 52.2288 40.6453 53.4821L40.141 54.4928H34.5795C28.1774 54.4928 27.6928 54.5673 26.5316 55.7305C25.4146 56.8495 25.2693 57.5201 25.2693 61.5552V65.0395H21.9387H18.6084L18.2692 64.3803C17.8289 63.5245 16.9264 62.6665 16.1063 62.3239C15.2208 61.9539 9.57874 61.9303 8.71224 62.293C5.83987 63.4953 5.21553 67.4826 7.58217 69.5118C8.36252 70.181 9.57505 70.6644 10.4728 70.6644H11.0557V72.6959C11.0557 75.1779 11.2605 76.055 12.0579 76.9882C13.2018 78.3268 13.6993 78.4769 17.2154 78.5435C20.2696 78.6015 20.3098 78.5975 20.798 78.1766C21.4337 77.6289 21.4776 76.7367 20.8922 76.2619C20.54 75.9762 20.1498 75.9377 17.6031 75.9377H14.7137L14.2008 75.4239C13.6912 74.9135 13.6879 74.8966 13.6879 72.8119V70.7136L14.6305 70.6161C15.149 70.5625 15.8848 70.3594 16.2658 70.1648C17.0284 69.7751 18.1479 68.6275 18.3318 68.0472L18.4494 67.6762H29.4881H40.5267L40.7787 68.1596C41.0986 68.7729 41.8526 69.4765 42.6414 69.8973C43.1892 70.1894 43.7727 70.2308 48.0373 70.2793L52.819 70.3336V76.795C52.819 83.93 52.7581 84.4387 51.7582 85.6497C51.4589 86.0123 50.8445 86.5265 50.3932 86.7922L49.5727 87.2754H27.7259C6.75603 87.2754 5.85461 87.2623 5.26501 86.9481C4.40764 86.4913 3.54728 85.6433 3.09999 84.8145L2.72061 84.1114V45.0008V5.89014L3.1028 5.17507C3.60378 4.23747 4.6698 3.28774 5.63281 2.92107C6.26751 2.67937 6.9373 2.63578 9.38133 2.67656L12.357 2.72613L12.742 4.69203C13.3385 7.73827 14.3013 9.15223 16.4744 10.173L17.4606 10.6361H27.7259H37.9913L38.9908 10.1668C40.2012 9.59853 41.3769 8.46054 41.9246 7.3273C42.1474 6.86606 42.4963 5.61645 42.6996 4.55018L43.0695 2.61187L46.3211 2.669C49.5037 2.7249 49.59 2.73633 50.3932 3.20934C50.8445 3.47512 51.4589 3.98927 51.7582 4.3519C52.8618 5.68852 52.819 4.79205 52.819 26.5632V46.3815L53.2814 46.7457C53.5356 46.9461 53.8478 47.1101 53.975 47.1101C54.4939 47.1101 55.0937 46.6788 55.2669 46.1808C55.5136 45.4717 55.5153 7.9717 55.2688 6.24169C54.8389 3.22622 52.6086 0.806983 49.6957 0.196506C48.2957 -0.0968682 6.72269 -0.0472987 5.52823 0.249239ZM40.356 2.94585C40.3537 3.11495 40.2098 3.89998 40.0363 4.6901C39.6657 6.37722 39.1313 7.18299 38.0283 7.71788C37.2823 8.07963 37.0635 8.08737 27.6619 8.08737C17.2777 8.08737 17.5868 8.11356 16.5227 7.14396C15.9036 6.57989 15.6421 5.96221 15.2856 4.22077L14.9616 2.63824H27.6608C39.64 2.63824 40.36 2.65564 40.356 2.94585ZM24.7428 4.33907C23.8351 4.69344 23.5557 5.84356 24.2164 6.50536C24.5414 6.8309 24.8013 6.85692 27.7259 6.85692C30.6506 6.85692 30.9105 6.8309 31.2354 6.50536C31.6787 6.06135 31.6859 5.2612 31.2512 4.72315C30.9256 4.31956 30.8347 4.30708 27.9611 4.27227C26.3358 4.25259 24.8876 4.28265 24.7428 4.33907ZM46.1637 6.08965C45.4428 7.00756 45.9428 8.08737 47.0888 8.08737C47.8193 8.08737 48.315 7.57796 48.315 6.82721C48.315 5.7017 46.86 5.20284 46.1637 6.08965ZM30.0663 18.8937C29.5916 19.2266 29.4142 19.9385 29.6809 20.4395C29.7957 20.655 31.3604 22.7692 33.1583 25.1378C34.9561 27.5065 36.4904 29.5479 36.568 29.6747C36.6629 29.8297 35.4153 31.6276 32.7438 35.185C28.5443 40.7772 28.378 41.0837 29.1297 41.8368C29.4826 42.1903 30.0773 42.2852 30.6234 42.0753C30.785 42.0131 32.5692 39.7587 34.5883 37.0656C36.6073 34.3725 38.3175 32.1706 38.3885 32.1725C38.4596 32.1744 40.2432 34.4631 42.352 37.2581C44.4607 40.0532 46.3032 42.385 46.446 42.44C47.3713 42.7956 48.2566 42.2736 48.2566 41.3724C48.2566 40.8347 47.7089 40.0294 44.1343 35.3126L40.012 29.8731L43.4045 25.349C45.2705 22.8605 46.8905 20.6497 47.0046 20.436C47.4377 19.6256 46.7633 18.6341 45.7791 18.6341C45.1874 18.6341 45.0279 18.8188 41.413 23.6861C39.8206 25.8302 38.4668 27.5878 38.4047 27.5917C38.3426 27.5956 36.9607 25.8399 35.3339 23.6901C33.707 21.5404 32.1507 19.5233 31.8752 19.2078C31.3207 18.5725 30.682 18.4614 30.0663 18.8937ZM7.4439 19.2479L7.00679 19.6857L7.05715 27.9928C7.10751 36.2973 7.10769 36.3001 7.529 37.3544C7.85083 38.1595 8.26618 38.7222 9.28376 39.7318C10.8016 41.2377 11.9777 41.8867 13.9758 42.321C15.0961 42.5645 15.5086 42.5763 16.7236 42.3989C19.6081 41.9777 22.3729 40.0553 23.5563 37.6478L24.1287 36.4836L24.1789 28.016L24.229 19.5485L23.7603 19.1791C23.1779 18.7202 22.6247 18.7091 22.0863 19.1457L21.672 19.4815L21.5843 27.8028C21.4862 37.1015 21.5641 36.5423 20.1743 37.9345C19.7707 38.3388 18.9177 38.9273 18.2788 39.2425C17.2277 39.7608 16.9664 39.8153 15.534 39.8153C14.1337 39.8153 13.8346 39.7563 12.9421 39.3035C11.7204 38.6837 10.5103 37.5258 10.0167 36.5042C9.66367 35.7735 9.65191 35.4921 9.65191 27.7111V19.6727L9.22112 19.2414C8.67012 18.6893 7.9991 18.6917 7.4439 19.2479ZM64.8566 54.2116C65.6677 55.024 65.6664 55.7206 64.8524 56.5361L64.2518 57.1377L53.9576 57.0898L43.6637 57.0416L43.2403 56.5484C42.7867 56.0201 42.6763 55.0843 42.9967 54.4845C43.4542 53.6283 43.4523 53.6285 54.1965 53.6209L64.26 53.6139L64.8566 54.2116ZM41.0624 57.956C41.4357 58.4585 42.0179 58.9579 42.5482 59.2304C43.4094 59.6726 43.4784 59.679 48.1283 59.7328L52.8365 59.7872L52.7839 60.6995L52.7312 61.6118L47.9057 61.6997L43.0801 61.7876L42.258 62.2717C41.3839 62.7864 40.8643 63.3991 40.4409 64.4141L40.18 65.0395H34.0408H27.9014L27.907 61.5679C27.9128 57.9653 27.9495 57.7679 28.691 57.3418C28.9346 57.2019 30.7859 57.1386 34.7453 57.1348L40.4486 57.1295L41.0624 57.956ZM64.9412 64.8226C65.2228 65.1383 65.4532 65.5971 65.4532 65.8419C65.4532 66.4928 65.02 67.2256 64.493 67.4661C64.1533 67.6212 61.3908 67.6762 53.9378 67.6762H43.8427L43.3298 67.1624C42.4929 66.3241 42.6528 64.9818 43.6548 64.4324C44.0655 64.207 45.5646 64.1756 54.281 64.2093L64.4293 64.2485L64.9412 64.8226ZM15.633 65.1741C16.1968 65.8069 16.2747 66.3868 15.8945 67.1234C15.4975 67.8924 14.9576 68.0277 12.2893 68.0277C9.9411 68.0277 9.83546 68.0119 9.32728 67.5835C8.66012 67.0212 8.48745 66.2928 8.85332 65.5841C9.34448 64.6326 9.80142 64.5074 12.606 64.5563L15.1213 64.6001L15.633 65.1741ZM27.4555 73.3624C25.8829 74.1016 25.0515 75.4559 25.0504 77.2798C25.0496 79.1445 26.2196 80.7309 28.0592 81.3589C28.4684 81.4987 30.6451 81.5621 34.9905 81.5609C41.273 81.5593 41.3327 81.5558 42.2125 81.1454C45.3283 79.692 45.629 75.3601 42.7386 73.5693L41.8798 73.0374L35.11 72.9921L28.3401 72.9465L27.4555 73.3624ZM41.1414 75.6591C41.8614 75.9606 42.115 76.3921 42.115 77.3167C42.115 77.8815 42.0112 78.1032 41.575 78.4709L41.0352 78.926H34.8448H28.6545L28.1973 78.5015C27.5708 77.9198 27.4373 77.2694 27.7916 76.5254C28.2957 75.4663 28.56 75.425 34.8822 75.4173C39.3821 75.4118 40.6692 75.4616 41.1414 75.6591Z" fill="white"/>
</svg>
