<svg width="96" height="105" viewBox="0 0 96 105" fill="none" xmlns="http://www.w3.org/2000/svg">
<path fill-rule="evenodd" clip-rule="evenodd" d="M28.0837 0.222701C26.4542 0.702126 25.157 1.8816 24.2633 3.69586C23.8492 4.5367 23.8348 4.76143 23.7797 11.2735C23.7243 17.8081 23.733 17.9955 24.1108 18.4053C24.6066 18.9432 25.5211 18.9482 26.012 18.4156C26.3424 18.0572 26.3904 17.7315 26.3904 15.8502V13.6952H54.0105H81.6305V40.4952C81.6305 61.8439 81.5825 67.2779 81.3941 67.2099C81.2639 67.1629 81.0946 66.5784 81.0172 65.91C80.8436 64.4058 80.1445 63.2534 78.9737 62.5407C78.2234 62.084 77.9122 62.0276 76.1444 62.0276C74.4489 62.0276 74.0418 62.0949 73.3649 62.4875C72.0988 63.2216 71.2257 64.7915 71.2257 66.3336C71.2257 66.9444 71.1482 67.0201 70.0322 67.5005L68.8388 68.0142L68.127 67.3468C67.3144 66.5846 65.874 66.1288 64.9439 66.3393C63.5818 66.6476 61.5046 68.5013 60.752 70.0805C60.019 71.6183 60.2102 73.4987 61.2274 74.7555L61.8075 75.4722L61.2721 76.8052C60.8082 77.9604 60.6703 78.1384 60.2396 78.1384C58.4371 78.1384 56.8005 79.6844 56.3833 81.7813L56.2505 82.4483H41.3206H26.3904V77.1272V71.8059L25.8919 71.3807C25.2616 70.8426 24.8692 70.844 24.2334 71.3864L23.7281 71.8178L23.7822 81.5968C23.8363 91.3455 23.8378 91.3786 24.2703 92.2574C24.939 93.616 25.9407 94.6939 27.1167 95.3205L28.1876 95.891L44.2943 95.9479L60.4009 96.0047L60.6493 96.6662C61.0332 97.6883 62.8805 99.6862 63.9423 100.228C65.3933 100.967 66.8767 100.793 68.0214 99.7482C68.5774 99.2408 68.6535 99.2248 69.3031 99.4797C71.1587 100.208 71.1661 100.214 71.2984 101.296C71.4491 102.53 72.0121 103.477 73.0772 104.289C73.801 104.841 74.059 104.911 75.6283 104.985C76.6111 105.032 77.7265 104.965 78.1805 104.832C79.7225 104.381 81.0494 102.572 81.0588 100.907C81.0628 100.198 81.0995 100.162 82.3286 99.6376L83.5942 99.098L84.2179 99.6922C85.3479 100.769 87.0191 100.968 88.5041 100.203C89.5068 99.6872 91.5246 97.2827 91.8038 96.2711C92.2285 94.7339 91.9765 93.3242 91.0791 92.2155C90.7726 91.8369 90.5219 91.4504 90.5219 91.3568C90.5219 91.2634 90.713 90.6523 90.9466 89.9986C91.3653 88.8273 91.3821 88.8105 92.129 88.806C93.702 88.7965 95.3925 87.41 95.8076 85.7889C96.0709 84.7604 96.0622 82.1786 95.7923 81.2009C95.3308 79.5305 93.9988 78.4122 92.1733 78.1628C91.2446 78.036 91.2421 78.0335 90.79 76.8265L90.3371 75.6175L90.9845 74.8401C91.6523 74.0382 92.0355 72.9528 92.0301 71.8788C92.0229 70.4177 90.3738 67.9908 88.6392 66.8879C87.623 66.2418 86.059 66.153 85.0861 66.686L84.4741 67.0211L84.4239 35.9971L84.3736 4.97282L83.8793 3.84404C83.2507 2.40823 82.1973 1.26549 80.8738 0.583501L79.8333 0.0472271L54.3888 0.00823282C34.7039 -0.0219364 28.7495 0.0267038 28.0837 0.222701ZM79.9355 3.49576C81.2859 4.27031 81.6305 5.22423 81.6305 8.18615V10.6167H54.0105H26.3904L26.3915 8.51309C26.3927 6.07123 26.5889 5.13372 27.2869 4.23377C28.2682 2.96851 26.6787 3.03993 54.0281 3.03111L79.1116 3.02311L79.9355 3.49576ZM4.90105 22.1161C2.96708 22.5319 1.22285 23.9989 0.446083 25.8627L0 26.9327V44.8949V62.8571L0.621451 64.2267C1.29739 65.716 2.12069 66.5626 3.62655 67.3166L4.54028 67.7741H27.7147H50.889L51.886 67.2852C53.1824 66.6496 54.6208 64.9542 55.0824 63.518C55.4085 62.5029 55.4293 61.377 55.4293 44.788V27.138L54.8937 25.8807C53.9891 23.7572 52.4418 22.4854 50.2997 22.1046C48.9407 21.8633 6.02647 21.874 4.90105 22.1161ZM50.6998 25.3691C51.6 25.8175 52.0033 26.2752 52.3953 27.2927C52.6491 27.9519 52.686 30.1908 52.6851 44.8328C52.6845 55.2149 52.613 61.8946 52.4978 62.3445C52.2865 63.1697 51.3378 64.2564 50.5457 64.5805C50.1809 64.7297 42.9405 64.7972 27.5605 64.795L5.10782 64.7915L4.35489 64.3289C3.93283 64.0695 3.41486 63.5075 3.17574 63.0497L2.74933 62.2328L2.74612 45.038C2.74366 30.8882 2.78925 27.7262 3.00359 27.1827C3.33351 26.3458 4.22909 25.4263 4.93832 25.1961C5.23968 25.0984 15.489 25.0124 27.7147 25.0052C48.8985 24.9927 49.9787 25.0097 50.6998 25.3691ZM31.9205 33.0384C31.8149 33.1796 29.5024 38.128 26.7814 44.0348C23.3891 51.3994 21.8706 54.8986 21.9496 55.1689C22.0983 55.6777 22.7107 56.0303 23.1704 55.872C23.5658 55.7358 33.5792 34.5182 33.5792 33.8163C33.5792 32.9791 32.3836 32.4184 31.9205 33.0384ZM13.6209 43.3526C11.2735 45.0224 9.96782 46.0787 9.85734 46.3975C9.49128 47.4542 9.77372 47.7604 13.6273 50.4832C15.6642 51.9223 17.4962 53.1 17.6986 53.1C18.2644 53.1 18.8554 52.3412 18.7875 51.7021C18.7383 51.2407 18.2565 50.8137 15.8494 49.0979C14.2658 47.9691 12.9686 46.9994 12.9667 46.943C12.965 46.8865 14.2607 45.9168 15.8462 44.788C18.2569 43.0717 18.7383 42.6454 18.7875 42.1838C18.8585 41.5168 18.255 40.7839 17.6409 40.7909C17.4069 40.7936 15.5978 41.9464 13.6209 43.3526ZM36.9982 41.3268C36.265 42.3379 36.4057 42.5225 39.6499 44.7999C41.2012 45.8891 42.4706 46.8449 42.4706 46.9237C42.4706 47.0027 41.1976 47.9691 39.6416 49.0714C37.9956 50.2376 36.761 51.2516 36.6893 51.4967C36.5033 52.1323 37.1842 52.9998 37.8592 52.9875C38.2292 52.9809 39.5673 52.1452 42.04 50.3767C45.9808 47.5581 46.2823 47.2016 45.5693 46.2045C45.0627 45.4961 38.3206 40.786 37.813 40.786C37.5805 40.786 37.2137 41.0294 36.9982 41.3268ZM77.8048 65.323C78.1525 65.5872 78.2253 65.8375 78.2253 66.7697C78.2253 67.9445 78.5087 68.7728 79.1046 69.34C79.2972 69.5235 80.3388 70.0553 81.419 70.5218C83.7342 71.5217 84.1844 71.4804 85.5182 70.1468C85.9765 69.6883 86.5367 69.3134 86.7629 69.3134C87.0079 69.3134 87.5834 69.7573 88.1859 70.4109C89.3411 71.6639 89.4608 72.2572 88.713 73.0197C87.2858 74.4739 87.2079 75.496 88.3085 78.3233C89.2435 80.7251 89.6122 81.0798 91.2811 81.1822C92.9621 81.2852 93.1704 81.5469 93.1704 83.5553C93.1704 85.3854 92.9175 85.7318 91.5804 85.7324C90.4406 85.7326 89.395 86.2441 89.0635 86.9634C88.9336 87.2456 88.604 88.0768 88.3314 88.8105C87.2452 91.7336 87.2567 92.2159 88.4474 93.6173C88.8664 94.1104 89.1977 94.7079 89.1977 94.9704C89.1977 95.598 87.3256 97.6355 86.7489 97.6355C86.5149 97.6355 85.9487 97.2776 85.4907 96.8402C84.2675 95.672 83.8343 95.647 81.6691 96.619C80.6595 97.0721 79.6205 97.5573 79.3604 97.6973C78.7251 98.039 78.2259 99.1785 78.2257 100.287C78.2251 101.674 77.8893 101.945 76.1773 101.945C74.4304 101.945 74.0634 101.675 74.0634 100.388C74.0634 98.6908 73.486 97.8662 71.9051 97.3049C71.3754 97.1169 70.5403 96.745 70.0496 96.4784C68.8421 95.8225 68.0551 95.8539 67.1111 96.5958C66.6896 96.927 66.2887 97.2965 66.2202 97.4167C66.1516 97.537 65.8748 97.6355 65.605 97.6355C64.9894 97.6355 63.091 95.6497 63.091 95.0059C63.091 94.7668 63.3339 94.2678 63.6308 93.8972C64.3517 92.9968 64.6045 92.4413 64.6045 91.757C64.6045 91.2386 63.7081 88.6537 62.9637 87.0256C62.5988 86.2272 61.7008 85.732 60.6181 85.732C59.3782 85.732 59.1183 85.3529 59.1183 83.5452C59.1183 81.6489 59.4249 81.2173 60.7736 81.2161C61.8843 81.2152 62.8067 80.6451 63.1781 79.7304C65.1149 74.9597 65.1181 74.9298 63.8432 73.3585C63.4295 72.8487 63.091 72.2238 63.091 71.9699C63.091 71.3183 64.97 69.3134 65.5808 69.3134C65.8559 69.3134 66.2749 69.5734 66.6028 69.9473C67.8218 71.3384 68.5965 71.449 70.6582 70.5265C73.7009 69.165 74.0624 68.7594 74.063 66.7083C74.0634 65.3095 74.4372 65.0035 76.1444 65.0035C76.9605 65.0035 77.5282 65.1127 77.8048 65.323ZM74.2571 75.7864C72.8078 76.227 71.8095 76.9136 70.6968 78.2342C69.0617 80.1751 68.4429 82.8132 69.0348 85.3197C69.6277 87.8301 70.9221 89.551 73.0878 90.7075C74.2346 91.3201 74.4898 91.3759 76.1404 91.3759C77.7713 91.3759 78.0613 91.3143 79.2092 90.7245C80.8244 89.8943 82.0639 88.5486 82.8248 86.7994C83.3598 85.5692 83.4224 85.2292 83.4185 83.5771C83.4122 80.9934 82.9255 79.7109 81.2694 77.9145C80.325 76.8897 79.7471 76.4501 78.8876 76.1025C77.4096 75.5042 75.5925 75.3803 74.2571 75.7864ZM78.1665 79.0289C79.0097 79.5019 79.9319 80.5659 80.3258 81.5202L80.6667 82.3457L76.2965 82.4009C73.8929 82.4312 71.8863 82.4124 71.8371 82.359C71.3659 81.848 73.2622 79.3694 74.5053 78.8717C75.4705 78.4852 77.3405 78.5655 78.1665 79.0289ZM56.5737 85.9885C56.9471 87.3228 58.3638 88.5496 59.7925 88.7762C60.6444 88.9115 60.6612 88.9295 61.1788 90.2617L61.7028 91.6103L61.2008 92.2627L60.6987 92.9152H44.8627C27.5518 92.9152 28.2638 92.9642 27.2875 91.7053C26.5951 90.8127 26.3927 89.8687 26.3915 87.5278L26.3904 85.5268H41.4174H56.4442L56.5737 85.9885ZM79.986 86.1663C78.9678 88.0714 76.2581 88.9597 74.343 88.016C73.5623 87.6312 72.5063 86.6155 72.1625 85.9188C71.9749 85.5385 72.0933 85.5268 76.1483 85.5268H80.3277L79.986 86.1663Z" fill="white"/>
</svg>
