<svg width="57" height="56" viewBox="0 0 57 56" fill="none" xmlns="http://www.w3.org/2000/svg">
<path d="M6.31398 18.6054L17.8638 49.5983C9.78463 45.7632 4.22022 37.6471 4.22022 28.2601C4.22022 24.8152 4.97124 21.5598 6.31398 18.6054ZM44.7642 27.0672C44.7642 24.1351 43.6946 22.1061 42.7728 20.523C41.5439 18.572 40.3946 16.9109 40.3946 14.9599C40.3946 12.7748 42.0787 10.7458 44.457 10.7458C44.5594 10.7458 44.6618 10.7569 44.7756 10.768C40.4629 6.89951 34.7278 4.53603 28.4237 4.53603C19.969 4.53603 12.527 8.78361 8.19155 15.2275C8.7605 15.2497 9.29533 15.2609 9.75049 15.2609C12.2767 15.2609 16.2025 14.9599 16.2025 14.9599C17.5111 14.8818 17.659 16.7659 16.3618 16.9109C16.3618 16.9109 15.0532 17.0558 13.5967 17.1338L22.4155 42.82L27.7182 27.2567L23.9517 17.1338C22.6431 17.0558 21.4141 16.9109 21.4141 16.9109C20.1055 16.8328 20.2648 14.8818 21.5621 14.9599C21.5621 14.9599 25.5562 15.2609 27.9344 15.2609C30.4606 15.2609 34.3864 14.9599 34.3864 14.9599C35.695 14.8818 35.8429 16.7659 34.5457 16.9109C34.5457 16.9109 33.2371 17.0558 31.7806 17.1338L40.5311 42.6305L42.9435 34.7262C43.9677 31.4485 44.7642 29.0962 44.7642 27.0672ZM28.8447 30.3337L21.5848 51.0142C23.7582 51.6385 26.0455 51.9841 28.4237 51.9841C31.2457 51.9841 33.9426 51.5047 36.4574 50.6351C36.3891 50.5348 36.3322 50.4233 36.2867 50.3118L28.8447 30.3337ZM49.6686 16.8774C49.771 17.6355 49.8279 18.4382 49.8279 19.319C49.8279 21.727 49.3728 24.425 47.9845 27.8141L40.588 48.7622C47.7911 44.6484 52.6272 37.0116 52.6272 28.2601C52.6272 24.1351 51.5576 20.2554 49.6686 16.8774ZM56.644 28.2601C56.644 43.5112 43.979 55.9084 28.4237 55.9084C12.857 55.9084 0.203369 43.5001 0.203369 28.2601C0.203369 13.0089 12.857 0.611755 28.4237 0.611755C43.979 0.611755 56.644 13.0089 56.644 28.2601ZM55.3468 28.2601C55.3468 13.7113 43.2621 1.88269 28.4237 1.88269C13.5739 1.88269 1.50059 13.7113 1.50059 28.2601C1.50059 42.8089 13.5853 54.6374 28.4237 54.6374C43.2735 54.6374 55.3468 42.8089 55.3468 28.2601Z" fill="#E7E7E7"/>
</svg>
