<svg width="86" height="86" viewBox="0 0 86 86" fill="none" xmlns="http://www.w3.org/2000/svg">
<path fill-rule="evenodd" clip-rule="evenodd" d="M25.7209 0.201364C23.5006 0.734902 21.8544 2.11704 20.8383 4.30069C20.2351 5.59635 20.2163 5.85393 20.2115 12.8216L20.2067 20.0064L18.4454 20.9377C13.779 23.405 10.0072 28.6467 9.01446 34.0433L8.6839 35.8395H6.60241H4.52093V37.3031V38.7667H6.60241H8.6839L9.0142 40.5629C10.0974 46.4541 14.1888 51.7677 19.5012 54.1818C20.8319 54.7866 24.4571 55.7973 25.2959 55.7973C25.7116 55.7973 25.7844 56.0849 25.8517 57.9926L25.9288 60.188L27.325 60.2683L28.7212 60.349V58.1092V55.8697L29.9562 55.7002C37.6995 54.6381 44.3665 48.1761 45.5739 40.5629L45.859 38.7667H48.0604H50.2621V37.3031V35.8395H48.0016H45.7411V35.0971C45.7411 32.769 43.6969 27.9607 41.6603 25.499C38.9667 22.2424 35.0781 19.9095 31.037 19.125L28.723 18.6759L28.722 16.4805L28.7212 14.2852H27.2585H25.7959V16.547C25.7959 18.5226 25.7371 18.8092 25.3305 18.8118C25.0744 18.8134 24.413 18.8895 23.8604 18.9808L22.8554 19.1471L22.9296 15.319L23.0035 11.4911L34.5053 11.4216L46.0071 11.3524V10.0275V8.70257L34.5053 8.63338L23.0035 8.56393L23.0636 7.14214C23.1389 5.36643 23.899 4.07184 25.2802 3.36666C26.269 2.86187 26.9195 2.84271 43.0621 2.84271C58.2827 2.84271 59.9047 2.88422 60.7658 3.29508L61.7138 3.74746L62.5409 2.91961C63.5836 1.87622 63.422 1.39856 61.767 0.633782C60.5081 0.0520803 60.4028 0.0483557 43.6136 0.00418251C34.2298 -0.0205651 26.2796 0.0669822 25.7209 0.201364ZM0.414064 6.36139C0.0702071 6.85262 0.000531857 7.92289 0.0037231 12.6813C0.00558466 15.832 0.0768561 18.6695 0.161956 18.9867C0.4497 20.0601 1.33607 20.1687 9.14823 20.0851C16.1006 20.0109 16.5535 19.9763 16.9088 19.4899C17.2085 19.0793 17.2859 17.7104 17.2859 12.812C17.2859 7.18099 17.2441 6.61286 16.7995 6.21024C16.3705 5.82173 15.402 5.76984 8.57061 5.76984C0.870943 5.76984 0.825734 5.77304 0.414064 6.36139ZM49.2515 6.08917C48.7941 6.54686 48.7941 24.9506 49.2515 25.4083C49.4927 25.6496 53.5682 25.7276 65.9643 25.7276C81.5086 25.7276 82.3809 25.7023 82.7981 25.2409C83.1896 24.8082 83.2382 23.7518 83.2382 15.7024C83.2382 7.2712 83.205 6.62058 82.7518 6.21024C82.3104 5.81056 80.7565 5.76984 65.918 5.76984C53.5581 5.76984 49.4927 5.84781 49.2515 6.08917ZM14.3606 12.8216V17.2123H8.64295H2.92531V12.9991C2.92531 10.6816 3.00509 8.70576 3.10269 8.60837C3.20002 8.51071 5.77296 8.43088 8.82033 8.43088H14.3606V12.8216ZM80.3129 15.7511V23.0711L66.0188 23.0024L51.7247 22.9335L51.6537 16.0191C51.6146 12.2162 51.6407 8.95324 51.7117 8.76777C51.8138 8.50166 54.8351 8.43088 66.0771 8.43088H80.3129V15.7511ZM5.85061 12.9546V14.2852H8.64295H11.4353V12.9546V11.6241H8.64295H5.85061V12.9546ZM54.5171 12.9546V14.2852H57.4424H60.3677V12.9546V11.6241H57.4424H54.5171V12.9546ZM63.293 12.9546V14.2852H70.3403H77.3876V12.9546V11.6241H70.3403H63.293V12.9546ZM54.5697 18.6093L54.65 20.0064L66.0188 20.0758L77.3876 20.145V18.6788V17.2123H65.9385H54.4891L54.5697 18.6093ZM25.7959 22.9335V24.3971H27.2585H28.7212V22.9402V21.4832L29.5855 21.6371C36.6379 22.8923 41.5795 27.8208 42.9573 34.9747L43.1241 35.8395H41.6401H40.1565V37.3031V38.7667H41.6125H43.0685L42.9148 39.6315C42.3739 42.6752 41.2652 45.1284 39.3829 47.447C37.533 49.7256 37.3309 49.7448 37.1633 47.658C36.9413 44.8881 35.0749 41.8096 32.7174 40.3234L32.06 39.909L33.0575 38.4596C35.2858 35.2222 34.5388 30.7117 31.4157 28.5462C27.9199 26.122 22.9059 27.3766 20.9561 31.1636C19.7463 33.5132 20.1615 36.984 21.8877 38.9511C22.6724 39.8454 22.6852 39.8979 22.1906 40.1738C21.9063 40.3324 21.0603 41.0418 20.3107 41.7505C18.6765 43.2952 17.6215 45.4711 17.3784 47.7993L17.2066 49.4438L16.0285 48.2964C13.9372 46.2599 11.7012 41.7523 11.7012 39.5735C11.7012 38.7826 11.7278 38.7667 13.0309 38.7667H14.3606V37.3031V35.8395H13.0309C11.7068 35.8395 11.7012 35.8358 11.7068 34.9747C11.7145 33.7919 12.812 30.7734 13.8787 29.0015C15.0323 27.0853 17.8085 24.4854 19.8703 23.3904C21.1872 22.6911 24.5899 21.5586 25.5964 21.4846C25.706 21.4766 25.7959 22.1285 25.7959 22.9335ZM63.3552 35.8914L63.4259 43.1278L62.2292 44.2338C57.6275 48.4869 55.4574 50.1828 54.4035 50.3504C51.3857 50.8305 48.2136 53.2821 46.9166 56.1374C46.2767 57.5458 46.1504 58.21 46.0704 60.5871C46.0185 62.1239 45.8526 63.7021 45.7013 64.0944C45.5499 64.4869 44.8987 65.2881 44.254 65.8751C42.9791 67.0359 42.8039 67.7038 43.5876 68.4135C44.0426 68.8254 44.7311 68.8627 50.4355 68.7818C56.2845 68.699 56.8943 68.6453 58.2793 68.0902C61.2112 66.9148 63.485 64.2155 64.2219 61.0358L64.6384 59.2388L72.7827 50.0008C77.2618 44.9195 81.7761 39.8226 82.8138 38.6735C85.3373 35.8805 86 34.7387 86 33.1833C86 30.2556 83.0978 28.0544 80.3316 28.8838C79.425 29.1555 78.4679 29.8913 74.9942 32.9872C71.1325 36.4289 66.409 40.5088 66.1981 40.5849C66.0523 40.6376 65.9523 38.2254 65.9523 34.6641V28.6547H64.6184H63.2845L63.3552 35.8914ZM29.6873 30.8054C30.658 31.4057 31.6465 33.2211 31.6465 34.4036C31.6465 35.8169 30.5782 37.5045 29.2632 38.1679C27.8641 38.8739 26.9692 38.9183 25.6017 38.3497C23.7125 37.5639 22.6251 35.376 23.1477 33.4129C23.9237 30.4988 27.1264 29.2218 29.6873 30.8054ZM82.8242 32.1734C83.0518 32.4986 83.2382 32.9951 83.2382 33.2769C83.2382 33.7128 82.1849 35.2171 81.0291 36.4316C80.7536 36.7211 76.3699 41.6962 74.1647 44.2218C72.183 46.4916 64.8907 54.7214 64.0349 55.6536L63.0486 56.7286L60.6099 54.2975C59.2021 52.8938 58.2487 51.7411 58.3545 51.5697C58.525 51.2937 77.0834 34.7964 79.7172 32.5798C81.1065 31.4102 82.191 31.2684 82.8242 32.1734ZM30.504 42.3976C32.0023 43.1055 32.9488 44.0704 33.8293 45.7875C34.2622 46.6319 34.3965 47.3999 34.4149 49.1394L34.4388 51.3957L32.8895 52.0149C32.0374 52.3552 30.7511 52.7038 30.0307 52.789L28.7212 52.9444V51.5766V50.2091H27.2585H25.7959V51.5766V52.9444L24.5298 52.7943C23.8335 52.7118 22.5658 52.3829 21.7127 52.0636L20.1617 51.4829L20.2585 49.0497C20.3673 46.3136 20.8194 45.0946 22.2597 43.6534C24.4829 41.4288 27.4851 40.9713 30.504 42.3976ZM58.6053 56.2957C61.6668 59.3668 61.7489 59.4801 61.5604 60.3538C61.0915 62.5268 59.5457 64.4047 57.4424 65.356C56.4081 65.8241 55.6914 65.8983 52.1617 65.9034C48.3726 65.9087 48.092 65.8757 48.2763 65.4435C48.3856 65.1875 48.5673 63.5326 48.68 61.7665C48.888 58.5046 49.2489 57.1587 50.2599 55.8726C51.3383 54.5008 53.5522 53.2108 54.9202 53.1573C55.2662 53.1437 56.5722 54.256 58.6053 56.2957ZM20.2112 60.9863V64.5787H10.5197H0.827861L0.414064 65.1702C0.0686115 65.6633 0 66.7676 0 71.8228C0 77.5291 0.0311146 77.915 0.531874 78.4161C1.05205 78.9366 1.41585 78.9483 16.9535 78.9445C25.693 78.9427 33.1028 78.8714 33.4198 78.7862C34.4652 78.5057 34.6064 77.5432 34.5199 71.2864C34.4596 66.9095 34.3505 65.3139 34.0939 65.0571C33.8434 64.8065 32.2765 64.6753 28.3763 64.5787L23.0035 64.4456L22.9293 60.9198L22.8551 57.3939H21.5332H20.2112V60.9863ZM63.293 68.8363V71.7635H50.395H37.4971V73.0913V74.4194L50.3286 74.4884L63.16 74.5576L63.1488 77.3873C63.139 79.9395 63.0738 80.3131 62.484 81.1974C62.1245 81.7368 61.3862 82.4092 60.8437 82.6918C59.8991 83.1841 59.1414 83.2059 43.0791 83.2059C24.8401 83.2059 25.3443 83.245 24.0638 81.7277L23.5282 81.0933L22.4017 81.7655C21.7818 82.1351 21.275 82.5324 21.275 82.6479C21.275 83.1202 23.3131 84.9124 24.4476 85.4375C25.6456 85.992 25.9102 86 43.0818 86C60.1855 86 60.5224 85.9899 61.7003 85.4444C63.2664 84.719 64.5535 83.4066 65.3253 81.7479C65.9289 80.451 65.9473 80.2003 65.9497 73.1605L65.9523 65.9092H64.6227H63.293V68.8363ZM31.6465 71.7635V76.0211H17.2859H2.92531V71.7635V67.5058H17.2859H31.6465V71.7635ZM5.85061 71.7635V73.094H9.44076H13.0309V71.7635V70.433H9.44076H5.85061V71.7635ZM15.9562 71.7635V73.094H22.3387H28.7212V71.7635V70.433H22.3387H15.9562V71.7635ZM41.7521 78.9483V80.2788H43.0818H44.4115V78.9483V77.6177H43.0818H41.7521V78.9483Z" fill="white"/>
</svg>
